<?xml version="1.0" encoding="UTF-8"?>
<svg id="Layer_1" xmlns="http://www.w3.org/2000/svg" version="1.1" viewBox="0 0 512 512">
  <!-- Generator: Adobe Illustrator 30.0.0, SVG Export Plug-In . SVG Version: 2.1.1 Build 123)  -->
  <defs>
    <style>
      .st0 {
        fill: #343770;
      }
    </style>
  </defs>
  <path class="st0" d="M130.57,194.35l40.44,22.81v55.19l-40.44-22.81v-55.19ZM249.31,261.25l-61.42-34.51v60.05c.15,6.23-7.15,10.64-12.62,7.3l-57.32-32.23c-2.74-1.52-4.26-4.26-4.26-7.3v-69.63l-61.27-34.51v225.02l196.89,113.72v-227.9ZM459.58,375.43v-224.86l-193.39,110.53v225.93l193.39-111.6ZM381.28,107.08l-184.12,105.36,60.51,34.06,194-110.84-59.75-34.51-10.64,5.93ZM334.15,67.85l-195.37,111.9,41.2,23.11,194.76-111.44c-3.65-2.13-36.03-20.83-40.59-23.57ZM60.63,135.66c15.2,8.51,45.92,25.85,61.12,34.36l195.52-111.9-61.27-35.27L60.63,135.66Z"/>
</svg>