<?xml version="1.0" encoding="UTF-8"?>
<svg id="Layer_1" xmlns="http://www.w3.org/2000/svg" xmlns:xodm="http://www.corel.com/coreldraw/odm/2003" version="1.1" viewBox="0 0 8.8 10.6">
  <!-- Generator: Adobe Illustrator 30.1.0, SVG Export Plug-In . SVG Version: 2.1.1 Build 136)  -->
  <defs>
    <style>
      .st0 {
        font-family: AdobeClean-SemiCn, 'Adobe Clean';
        font-size: 2.3px;
        isolation: isolate;
      }

      .st0, .st1 {
        fill: #343770;
      }

      .st1 {
        fill-rule: evenodd;
      }
    </style>
  </defs>
  <g id="Layer_x5F_1">
    <g id="_34177569440">
      <text class="st0" transform="translate(.3 9.2)"><tspan x="0" y="0">Products</tspan></text>
      <path class="st1" d="M5.3,3.4v.9s.6-.3.6-.3v-.9s-.6.3-.6.3h0ZM6.1,2.9v1s0,0,0,0l-.8.4s0,0,0,0,0,0,0,0c0,0,0,0,0,0v-.9s-.6.3-.6.3v2.2l2.2-1.1v-2.2l-.6.3ZM3.8,1.7l2.2,1.1.6-.3-2.2-1.1-.6.3h0ZM3,2.1l2.2,1.1.6-.3-2.2-1.1-.6.3ZM2.3,2.5l2.2,1.1.6-.3-2.2-1.1-.6.3ZM2.2,2.6v2.2l2.2,1.1v-2.2l-2.2-1.1Z"/>
    </g>
  </g>
</svg>