<?xml version="1.0" encoding="UTF-8"?>
<!DOCTYPE svg PUBLIC "-//W3C//DTD SVG 1.1//EN" "http://www.w3.org/Graphics/SVG/1.1/DTD/svg11.dtd">
<!-- Creator: CorelDRAW -->
<svg xmlns="http://www.w3.org/2000/svg" xml:space="preserve" width="50.8mm" height="50.8mm" version="1.1" style="shape-rendering:geometricPrecision; text-rendering:geometricPrecision; image-rendering:optimizeQuality; fill-rule:evenodd; clip-rule:evenodd"
viewBox="0 0 5080 5080"
 xmlns:xlink="http://www.w3.org/1999/xlink"
 xmlns:xodm="http://www.corel.com/coreldraw/odm/2003">
 <defs>
  <style type="text/css">
   <![CDATA[
    .fil0 {fill:#343770;fill-rule:nonzero}
   ]]>
  </style>
 </defs>
 <g id="Layer_x0020_1">
  <metadata id="CorelCorpID_0Corel-Layer"/>
  <path class="fil0" d="M4697.12 2241.64l0 0c0,0 -1862.72,-1862.72 -1862.72,-1862.72 -80.76,-80.76 -185.6,-120.99 -298.36,-120.99 -112.76,0 -217.6,40.23 -298.36,120.99l-1862.72 1862.72c0,0 0,0 0,0 -161.22,161.22 -161.22,427.27 0,596.72 72.54,72.54 177.37,120.99 282.21,120.99 0,0 7.93,0 16.16,0l72.53 0 0 1370.83c0,274.29 217.6,491.89 491.89,491.89l725.64 0c72.53,0 137.14,-56.38 137.14,-137.14l0 -1072.47c0,-120.99 96.92,-225.83 225.83,-225.83l427.28 0c120.99,0 225.83,96.92 225.83,225.83l0 1072.47c0,72.53 56.38,137.14 137.14,137.14l725.65 0c274.28,0 491.89,-217.6 491.89,-491.89l0 -1370.83 72.53 0c112.76,0 217.6,-40.22 298.36,-120.99 161.22,-161.22 161.22,-427.28 0,-596.72l-7.92 0z"/>
 </g>
</svg>
