<?xml version="1.0" encoding="UTF-8"?>
<!DOCTYPE svg PUBLIC "-//W3C//DTD SVG 1.1//EN" "http://www.w3.org/Graphics/SVG/1.1/DTD/svg11.dtd">
<!-- Creator: CorelDRAW -->
<svg xmlns="http://www.w3.org/2000/svg" xml:space="preserve" width="50.8mm" height="50.8mm" version="1.1" style="shape-rendering:geometricPrecision; text-rendering:geometricPrecision; image-rendering:optimizeQuality; fill-rule:evenodd; clip-rule:evenodd"
viewBox="0 0 5080 5080"
 xmlns:xlink="http://www.w3.org/1999/xlink"
 xmlns:xodm="http://www.corel.com/coreldraw/odm/2003">
 <defs>
  <style type="text/css">
   <![CDATA[
    .fil0 {fill:#343770;fill-rule:nonzero}
   ]]>
  </style>
 </defs>
 <g id="Layer_x0020_1">
  <metadata id="CorelCorpID_0Corel-Layer"/>
  <g>
   <path class="fil0" d="M2297.52 3312.76c-562.17,0 -1015.68,-453.51 -1015.68,-1015.68 0,-562.18 453.51,-1015.69 1015.68,-1015.69 562.17,0 1015.68,453.51 1015.68,1015.69 0,562.17 -453.51,1015.68 -1015.68,1015.68l0 0zm2385.13 653.01l-644.1 -644.1c571.43,-970.43 254,-2213.04 -716.43,-2784.47 -961.18,-571.09 -2212.71,-244.41 -2784.14,716.77 -571.43,970.43 -254,2213.04 716.43,2784.47 634.85,380.84 1432.86,380.84 2068.05,0l644.1 644.1c199.5,190.59 526.18,190.59 716.43,-8.91 190.59,-199.5 190.59,-508.01 0,-707.52l-0.34 -0.34z"/>
  </g>
 </g>
</svg>
