<?xml version="1.0" encoding="UTF-8"?>
<!DOCTYPE svg PUBLIC "-//W3C//DTD SVG 1.1//EN" "http://www.w3.org/Graphics/SVG/1.1/DTD/svg11.dtd">
<!-- Creator: CorelDRAW -->
<svg xmlns="http://www.w3.org/2000/svg" xml:space="preserve" width="50.8mm" height="50.8mm" version="1.1" style="shape-rendering:geometricPrecision; text-rendering:geometricPrecision; image-rendering:optimizeQuality; fill-rule:evenodd; clip-rule:evenodd"
viewBox="0 0 5080 5080"
 xmlns:xlink="http://www.w3.org/1999/xlink"
 xmlns:xodm="http://www.corel.com/coreldraw/odm/2003">
 <defs>
  <style type="text/css">
   <![CDATA[
    .fil2 {fill:none}
    .fil0 {fill:#343770}
    .fil1 {fill:url(#id1);fill-rule:nonzero}
   ]]>
  </style>
   <clipPath id="id0">
    <path d="M3542 2544.66c0,-551.71 -454.28,-1005.43 -1006.69,-1005.43 -552.4,0 -1006.69,453.72 -1006.69,1005.43 0,551.71 454.29,1005.43 1006.69,1005.43 552.41,0 1006.69,-453.72 1006.69,-1005.43l0 0z"/>
   </clipPath>
  <linearGradient id="id1" gradientUnits="userSpaceOnUse" x1="2482.39" y1="3021.23" x2="1725.44" y2="1509.23">
   <stop offset="0" style="stop-opacity:1; stop-color:#343770"/>
   <stop offset="0.25098" style="stop-opacity:1; stop-color:#373A74"/>
   <stop offset="0.529412" style="stop-opacity:1; stop-color:#424582"/>
   <stop offset="0.839216" style="stop-opacity:1; stop-color:#545699"/>
   <stop offset="1" style="stop-opacity:1; stop-color:#6062A9"/>
  </linearGradient>
 </defs>
 <g id="Layer_x0020_1">
  <metadata id="CorelCorpID_0Corel-Layer"/>
  <g>
   <path class="fil0" d="M3882.74 2548.37c0,-756 -613.05,-1368.28 -1370,-1368.28 -756.95,0 -1370,612.28 -1370,1368.28 0,756 613.05,1368.29 1370,1368.29 756.95,0 1370,-612.29 1370,-1368.29l0 0zm930.88 287.43l0 -574.57c0,-75.71 -68.09,-143.71 -143.9,-143.71l-151.33 0c-60.65,0 -113.57,-45.43 -136.17,-98.29 -37.76,-143.71 -98.41,-279.71 -166.49,-408.29 -7.44,-22.57 -15.17,-45.42 -15.17,-68 0,-37.71 15.17,-75.71 45.49,-98.28l105.85 -113.43c0,0 45.48,-60.57 45.48,-98.29 0,-37.71 -15.16,-75.71 -45.48,-98.28l-408.8 -408.29c0,0 -60.65,-45.43 -98.41,-45.43 -37.76,0 -75.81,15.15 -98.41,45.43l-105.84 105.72c0,0 -60.65,45.43 -98.41,45.43 -22.6,0 -45.49,0 -68.09,-15.15 -128.73,-75.71 -264.9,-128.57 -408.79,-174 -60.65,-15.14 -98.41,-75.71 -98.41,-136l0 -151.14c0,-83.14 -68.09,-143.71 -143.9,-143.71l-575 0.57c-75.81,0 -143.9,68 -143.9,143.71l0 151.14c0,60.58 -45.48,113.43 -98.41,136 -143.89,37.72 -280.06,98.29 -408.79,174 -22.6,7.43 -45.49,15.15 -68.09,15.15 -37.76,0 -75.81,-15.15 -98.41,-45.43l-113.57 -105.72c0,0 -60.64,-45.42 -98.4,-45.42 -37.77,0 -75.81,15.14 -98.41,45.42l-401.08 408.29c0,0 -45.48,60.57 -45.48,105.71 0,45.15 15.16,75.72 45.48,98.29l105.85 105.71c0,0 45.49,60.58 45.49,98.29 0,22.57 0,45.43 -15.17,68 -75.8,128.57 -128.73,264.57 -174.21,408.29 -15.17,60.57 -75.81,98.28 -136.17,98.28l-151.34 -0.28c-83.24,0 -143.89,68 -143.89,143.71l0 574.57c0,75.72 68.09,143.72 143.89,143.72l151.62 0c60.65,0 113.57,45.43 136.17,98.28 37.76,143.72 98.41,279.72 174.22,408.29 7.44,22.57 15.16,45.43 15.16,68 0,37.71 -15.16,75.71 -45.48,98.29l-105.85 113.42c0,0 -45.49,60.58 -45.49,98.29 0,37.71 15.17,75.71 45.49,98.29l408.8 408.28c0,0 60.64,45.43 98.41,45.43 37.76,0 75.8,-15.14 98.4,-45.43l105.85 -105.71c0,0 60.65,-45.43 98.41,-45.43 22.6,0 45.48,0 68.08,15.14 128.74,75.72 264.91,128.57 408.8,166.29 60.65,15.14 98.41,75.71 98.41,136l0 151.14c0,75.71 68.08,143.72 143.89,143.72l575.01 -0.29c75.81,0 143.89,-68 143.89,-143.72l0 -151.14c0,-60.57 45.49,-113.43 98.41,-136 143.9,-37.71 280.07,-98.28 408.8,-166.28 22.6,-7.43 45.48,-15.15 68.08,-15.15 37.76,0 75.81,15.15 98.41,45.43l113.57 105.72c0,0 60.65,45.42 98.41,45.42 37.76,0 75.81,-15.14 98.41,-45.42l408.8 -408.29c0,0 45.48,-60.57 45.48,-98.29 0,-37.71 -15.16,-75.71 -45.48,-98.28l-105.85 -105.72c0,0 -45.49,-60.57 -45.49,-98.28 0,-22.57 0,-45.43 15.17,-68 68.08,-128.57 128.73,-264.57 166.49,-408.29 15.16,-60.57 75.81,-98.28 136.17,-98.28l151.05 0c75.8,0 143.89,-68 143.89,-143.72l-7.72 -7.43z"/>
  </g>
  <g style="clip-path:url(#id0)">
   <g id="_47495377120">
    <rect class="fil1" x="1528.62" y="1539.23" width="2013.37" height="2010.86"/>
   </g>
  </g>
  <path class="fil2" d="M3542 2544.66c0,-551.71 -454.28,-1005.43 -1006.69,-1005.43 -552.4,0 -1006.69,453.72 -1006.69,1005.43 0,551.71 454.29,1005.43 1006.69,1005.43 552.41,0 1006.69,-453.72 1006.69,-1005.43"/>
 </g>
</svg>
