<?xml version="1.0" encoding="UTF-8"?>
<!DOCTYPE svg PUBLIC "-//W3C//DTD SVG 1.1//EN" "http://www.w3.org/Graphics/SVG/1.1/DTD/svg11.dtd">
<!-- Creator: CorelDRAW -->
<svg xmlns="http://www.w3.org/2000/svg" xml:space="preserve" width="50.8mm" height="50.8mm" version="1.1" style="shape-rendering:geometricPrecision; text-rendering:geometricPrecision; image-rendering:optimizeQuality; fill-rule:evenodd; clip-rule:evenodd"
viewBox="0 0 5080 5080"
 xmlns:xlink="http://www.w3.org/1999/xlink"
 xmlns:xodm="http://www.corel.com/coreldraw/odm/2003">
 <defs>
  <style type="text/css">
   <![CDATA[
    .fil0 {fill:#009933;fill-rule:nonzero}
   ]]>
  </style>
 </defs>
 <g id="Layer_x0020_1">
  <metadata id="CorelCorpID_0Corel-Layer"/>
  <g>
   <path class="fil0" d="M3867.04 3470.05c-57.8,157.17 -272.78,281.22 -446.51,322.46 -115.61,24.69 -272.78,41.25 -801.79,-173.73 -669.61,-281.22 -1099.57,-958.96 -1132.69,-1000.2 -33.12,-41.25 -272.78,-363.71 -272.78,-686.18 0,-322.46 165.29,-487.76 231.54,-554 57.8,-57.8 148.73,-82.8 231.53,-82.8 24.69,0 49.69,0 74.37,0 66.24,0 99.37,0 148.74,115.61 57.8,132.17 190.29,463.07 206.53,496.2 16.57,33.12 33.13,82.8 8.13,124.05 -24.69,49.68 -41.25,66.24 -74.37,107.48 -33.12,41.25 -66.24,66.25 -99.36,107.49 -33.12,33.12 -66.24,74.37 -24.69,140.61 41.25,66.24 173.73,281.22 372.15,463.08 256.22,223.1 463.07,297.78 537.44,330.59 57.81,24.68 124.05,16.56 157.17,-24.69 49.68,-57.81 115.61,-148.73 181.86,-239.66 49.68,-66.24 99.36,-74.37 165.29,-49.68 57.81,24.68 388.71,181.85 454.64,214.97 66.24,33.12 107.49,49.69 124.05,74.37 16.56,24.69 16.56,157.17 -41.25,314.03l0 0zm-1331.1 -3215.9l0 0c-1256.74,0 -2281.94,1025.2 -2281.94,2281.94 0,496.19 157.17,958.96 438.08,1339.23l-281.22 851.47 876.46 -281.22c363.71,239.66 793.67,380.27 1256.74,380.27 1256.74,0 2281.94,-1025.2 2281.94,-2281.94 0,-1256.74 -1033.32,-2289.75 -2290.06,-2289.75z"/>
  </g>
 </g>
</svg>
