<?xml version="1.0" encoding="UTF-8"?>
<!DOCTYPE svg PUBLIC "-//W3C//DTD SVG 1.1//EN" "http://www.w3.org/Graphics/SVG/1.1/DTD/svg11.dtd">
<!-- Creator: CorelDRAW -->
<svg xmlns="http://www.w3.org/2000/svg" xml:space="preserve" width="50.8mm" height="50.8mm" version="1.1" style="shape-rendering:geometricPrecision; text-rendering:geometricPrecision; image-rendering:optimizeQuality; fill-rule:evenodd; clip-rule:evenodd"
viewBox="0 0 5080 5080"
 xmlns:xlink="http://www.w3.org/1999/xlink"
 xmlns:xodm="http://www.corel.com/coreldraw/odm/2003">
 <defs>
  <style type="text/css">
   <![CDATA[
    .fil198 {fill:none;fill-rule:nonzero}
    .fil195 {fill:#FEED01}
    .fil196 {fill:#FEEC01}
    .fil197 {fill:#FEEC01}
    .fil193 {fill:#FEEC02}
    .fil194 {fill:#FEEC02}
    .fil191 {fill:#FEEC06}
    .fil192 {fill:#FEEC03}
    .fil187 {fill:#FDEC11}
    .fil188 {fill:#FDEC0E}
    .fil189 {fill:#FDEB0C}
    .fil190 {fill:#FDEB09}
    .fil183 {fill:#FDEB1C}
    .fil184 {fill:#FDEB19}
    .fil185 {fill:#FDEB16}
    .fil186 {fill:#FDEB14}
    .fil179 {fill:#FDEB24}
    .fil180 {fill:#FDEB22}
    .fil181 {fill:#FDEA1F}
    .fil182 {fill:#FDEA1D}
    .fil176 {fill:#FCEA2C}
    .fil177 {fill:#FCEA2A}
    .fil178 {fill:#FCEA27}
    .fil3 {fill:#FAD324}
    .fil2 {fill:#FAD223}
    .fil1 {fill:#FAD221}
    .fil173 {fill:#FCEA32}
    .fil174 {fill:#FCEA30}
    .fil175 {fill:#FCEA2F}
    .fil172 {fill:#FCEA33}
    .fil7 {fill:#F9D32B}
    .fil6 {fill:#F9D32A}
    .fil5 {fill:#F9D228}
    .fil4 {fill:#F9D226}
    .fil168 {fill:#FBEA3A}
    .fil169 {fill:#FBE938}
    .fil170 {fill:#FBE937}
    .fil171 {fill:#FBE935}
    .fil11 {fill:#F9D431}
    .fil10 {fill:#F9D430}
    .fil9 {fill:#F9D32E}
    .fil8 {fill:#F9D32D}
    .fil164 {fill:#FBE940}
    .fil165 {fill:#FBE93F}
    .fil166 {fill:#FBE93D}
    .fil167 {fill:#FBE93C}
    .fil15 {fill:#F8D537}
    .fil14 {fill:#F8D436}
    .fil13 {fill:#F8D435}
    .fil12 {fill:#F8D433}
    .fil163 {fill:#FAE942}
    .fil160 {fill:#FAE946}
    .fil161 {fill:#FAE945}
    .fil162 {fill:#FAE943}
    .fil20 {fill:#F8D53D}
    .fil19 {fill:#F8D53C}
    .fil18 {fill:#F8D53B}
    .fil17 {fill:#F7D53A}
    .fil16 {fill:#F7D539}
    .fil156 {fill:#FAE94B}
    .fil157 {fill:#FAE94A}
    .fil158 {fill:#FAE949}
    .fil159 {fill:#FAE847}
    .fil24 {fill:#F7D742}
    .fil23 {fill:#F7D641}
    .fil22 {fill:#F7D640}
    .fil21 {fill:#F7D63F}
    .fil152 {fill:#F9E950}
    .fil153 {fill:#F9E94F}
    .fil154 {fill:#F9E84E}
    .fil155 {fill:#F9E84D}
    .fil29 {fill:#F7D749}
    .fil28 {fill:#F7D748}
    .fil27 {fill:#F7D746}
    .fil26 {fill:#F6D645}
    .fil25 {fill:#F6D644}
    .fil149 {fill:#F8E754}
    .fil150 {fill:#F8E753}
    .fil151 {fill:#F8E752}
    .fil34 {fill:#F6D84D}
    .fil33 {fill:#F6D84C}
    .fil32 {fill:#F6D84B}
    .fil31 {fill:#F6D84A}
    .fil30 {fill:#F6D749}
    .fil145 {fill:#F7E759}
    .fil146 {fill:#F7E758}
    .fil147 {fill:#F7E757}
    .fil148 {fill:#F8E756}
    .fil38 {fill:#F6D952}
    .fil37 {fill:#F6D951}
    .fil36 {fill:#F5D850}
    .fil35 {fill:#F5D84F}
    .fil142 {fill:#F7E75D}
    .fil143 {fill:#F7E75B}
    .fil144 {fill:#F7E75A}
    .fil141 {fill:#F6E75E}
    .fil42 {fill:#F5DA57}
    .fil41 {fill:#F5DA55}
    .fil40 {fill:#F5D954}
    .fil39 {fill:#F5D953}
    .fil137 {fill:#F6E762}
    .fil138 {fill:#F6E661}
    .fil139 {fill:#F6E660}
    .fil140 {fill:#F6E65F}
    .fil47 {fill:#F4DB5C}
    .fil46 {fill:#F4DB5B}
    .fil45 {fill:#F4DA5A}
    .fil44 {fill:#F4DA59}
    .fil43 {fill:#F4DA58}
    .fil133 {fill:#F5E767}
    .fil134 {fill:#F5E666}
    .fil135 {fill:#F5E665}
    .fil136 {fill:#F5E663}
    .fil52 {fill:#F3DB60}
    .fil51 {fill:#F3DB5F}
    .fil50 {fill:#F3DB5E}
    .fil49 {fill:#F3DA5D}
    .fil48 {fill:#F3DA5C}
    .fil132 {fill:#F4E668}
    .fil129 {fill:#F4E66A}
    .fil130 {fill:#F4E669}
    .fil131 {fill:#F4E668}
    .fil56 {fill:#F2DC65}
    .fil55 {fill:#F2DB64}
    .fil54 {fill:#F2DB63}
    .fil53 {fill:#F2DB62}
    .fil125 {fill:#F3E66E}
    .fil126 {fill:#F3E66D}
    .fil127 {fill:#F3E66C}
    .fil128 {fill:#F3E66B}
    .fil60 {fill:#F1DD69}
    .fil59 {fill:#F1DD68}
    .fil58 {fill:#F1DC67}
    .fil57 {fill:#F1DC66}
    .fil122 {fill:#F2E671}
    .fil123 {fill:#F2E670}
    .fil124 {fill:#F2E66F}
    .fil121 {fill:#F2E572}
    .fil65 {fill:#F1DE6E}
    .fil64 {fill:#F1DD6D}
    .fil63 {fill:#F1DD6C}
    .fil62 {fill:#F1DD6B}
    .fil61 {fill:#F1DD6A}
    .fil118 {fill:#F1E575}
    .fil119 {fill:#F1E574}
    .fil120 {fill:#F1E573}
    .fil70 {fill:#F0DF72}
    .fil69 {fill:#F0DF71}
    .fil68 {fill:#F0DE70}
    .fil67 {fill:#F0DE6F}
    .fil66 {fill:#F0DE6E}
    .fil114 {fill:#F0E579}
    .fil115 {fill:#F0E578}
    .fil116 {fill:#F0E577}
    .fil117 {fill:#F0E576}
    .fil75 {fill:#EFE077}
    .fil74 {fill:#EFDF76}
    .fil73 {fill:#EFDF75}
    .fil72 {fill:#EFDF74}
    .fil71 {fill:#EFDE73}
    .fil112 {fill:#EFE57B}
    .fil113 {fill:#EFE57A}
    .fil110 {fill:#EFE47D}
    .fil111 {fill:#EFE47C}
    .fil79 {fill:#EFE17B}
    .fil78 {fill:#EFE079}
    .fil77 {fill:#EFE078}
    .fil76 {fill:#EFE077}
    .fil106 {fill:#EEE481}
    .fil107 {fill:#EEE480}
    .fil108 {fill:#EEE47F}
    .fil109 {fill:#EEE47E}
    .fil84 {fill:#EEE180}
    .fil83 {fill:#EEE17F}
    .fil82 {fill:#EEE17E}
    .fil81 {fill:#EEE07D}
    .fil80 {fill:#EEE07C}
    .fil102 {fill:#EDE485}
    .fil103 {fill:#EDE484}
    .fil104 {fill:#EDE483}
    .fil105 {fill:#EDE482}
    .fil89 {fill:#EDE284}
    .fil88 {fill:#EDE283}
    .fil87 {fill:#EDE282}
    .fil86 {fill:#EDE281}
    .fil85 {fill:#EDE180}
    .fil101 {fill:#EDE486}
    .fil98 {fill:#ECE489}
    .fil99 {fill:#ECE488}
    .fil100 {fill:#ECE487}
    .fil94 {fill:#ECE389}
    .fil93 {fill:#ECE388}
    .fil92 {fill:#ECE387}
    .fil91 {fill:#ECE286}
    .fil90 {fill:#ECE285}
    .fil97 {fill:#ECE48B}
    .fil96 {fill:#ECE38A}
    .fil95 {fill:#ECE389}
    .fil0 {fill:url(#id3);fill-rule:nonzero}
   ]]>
  </style>
   <clipPath id="id0" style="clip-rule:nonzero">
    <path d="M2540 563.96c1091.22,0 1975.84,884.71 1975.84,1976.03 0,1091.35 -884.62,1976.04 -1975.84,1976.04 -1091.23,0 -1975.83,-884.69 -1975.83,-1976.04 0,-1091.32 884.6,-1976.03 1975.83,-1976.03z"/>
   </clipPath>
     <clipPath id="id1">
      <path d="M4475.72 2938.15l-1062.58 -1674.64 31.52 0 0 -462.36 -217.65 0 0 462.36 59.45 0 9.87 276.91 -180.37 -276.91 107.75 0 0 -462.36 -361.89 0 0 462.36 128.09 0 -120.73 207.27 -143.99 -206.45 -0.45 -0.82 132.98 0 0 -462.36 -434.62 0 0 462.36 132.39 0 -151.57 228.9 -143.79 -228.9 159.67 0 0 -462.36 -434.42 0 0 462.36 148.25 0 -223 345.47 -2.19 -320.45 5.6 -8.65 10.6 -16.37 57.44 0 0 -462.36 -217.65 0 0 462.36 46.95 0c-391.09,604.19 -782.3,1208.27 -1173.71,1812.09 11.13,39.6 23.53,78.66 37.02,117.22l1150.22 -1775.36 2.25 320.84c-356.35,552.02 -712.76,1104 -1069.47,1655.57 15.76,32.85 32.46,65.17 49.96,96.98l1020.7 -1580.08 3.13 445.79c-290.87,439.02 -581.85,877.88 -872.95,1316.54l-37.32 0c74.32,106.01 158.74,204.41 251.94,293.74l0 -293.74 -100.25 0 759.74 -1146.33 0.57 82.9 -586.2 1063.43 -70.57 0 0 296.95c80.19,76.51 166.84,146.34 258.99,208.6l57.57 0 0 -505.55 -139.92 0 481.41 -873.7 2.98 440.14 -253.18 433.56 -87.99 0 0 505.55 282.11 0 0 -505.55 -86.12 0 146.4 -250.96 1.62 250.96 -58.57 0 0 505.55 216 0 0 -505.55 -73.01 0 -2.67 -393.84 225.41 -386.44 -6.2 780.28 -140.23 0 0 505.55 325.63 0 0 -505.55 -100.9 0 7.36 -927.14 299.14 -512.83c-32.43,480.01 -64.97,959.99 -97.69,1439.97l-103.79 0 0 505.55 325.62 0 0 -505.55 -137.02 0 108.49 -1603.86 12.84 -22.02 20.7 32.97 112.66 1592.91 -113.55 0 0 505.55 325.8 0 0 -505.55 -127.38 0 -102.01 -1440.75 325.23 517.9 37.37 922.85 -129.94 0 0 505.55 299.25 0 0 -505.55 -84.61 0 -31.66 -778.92 182.18 289.98 17.22 488.94 -79.83 0 0 505.55 243.17 0 0 -505.55 -78.7 0 -12.27 -346.37 217.68 346.37 -123.41 0 0 505.55 105.95 0c73.34,-49.54 143.08,-103.98 208.96,-162.66l0 -342.89 -79.98 0 -335.91 -534.82 -15.49 -437.18 543.28 972 -108.6 0 0 339.96c113.15,-101.24 214.56,-215.32 301.97,-339.96l-86.76 0 -657.11 -1175.21 -2.87 -81.23 809.81 1160.66c18.46,-29.86 36.19,-60.22 53.08,-91.11l-869.17 -1246.14 -13.45 -378.41 958.06 1470.76c15.45,-35.24 29.95,-71 43.38,-107.28l-1007.94 -1547.37 -10.55 -296.95 1069.52 1685.65c11.66,-42.23 22.06,-85 30.92,-128.32zm-2316.4 -1539.71l-3.72 468.87 -240.71 363.36 -3.07 -449.11 247.5 -383.12zm426.66 37.03l-101.8 184.78 80.74 128.57 21.06 -313.35zm-153.96 279.41l-193.52 351.24 -3.89 493.03 311.73 -534.46 7.78 -115.37 -122.1 -194.44zm-279.21 506.79l-235.07 426.62 3.06 448.53 228.15 -390.89 3.86 -484.26zm-236.35 236.97l190.85 -346.3 -191.25 288.58 0.4 57.72zm1110.17 -1072.99l13.48 330.16 -112.21 -160.89 98.73 -169.27zm-173.62 297.7l-120.34 206.21 10.09 142.38 331.71 528.11 -21.06 -518.45 -200.4 -358.25zm-211.06 177.33l3.46 -5.96 -1.56 -22.06 -1.9 28.02zm79.09 -135.67l79.21 -135.94 -101.72 -181.86 22.51 317.8zm408.91 119.58l186.78 267.79 -13.84 -388.03 -189.66 -291.18 16.72 411.42zm193.06 444.47l-125.31 -179.72 127.02 227.19 -1.71 -47.47zm-178.46 -84.46l20.3 499.35 183.26 291.76 -16.17 -455.97 -187.39 -335.14zm-900.88 -789.67l-2.55 323.25 105.5 -159.29 -102.95 -163.96z"/>
     </clipPath>
     <clipPath id="id2">
      <path d="M2540 563.96c1091.22,0 1975.84,884.71 1975.84,1976.03 0,1091.35 -884.62,1976.04 -1975.84,1976.04 -1091.23,0 -1975.83,-884.69 -1975.83,-1976.04 0,-1091.32 884.6,-1976.03 1975.83,-1976.03z"/>
     </clipPath>
  <linearGradient id="id3" gradientUnits="userSpaceOnUse" x1="4427.36" y1="84.5" x2="681.3" y2="3740.73">
   <stop offset="0" style="stop-opacity:1; stop-color:#343770"/>
   <stop offset="0.709804" style="stop-opacity:1; stop-color:#4A4C8C"/>
   <stop offset="1" style="stop-opacity:1; stop-color:#6062A9"/>
  </linearGradient>
 </defs>
 <g id="Layer_x0020_1">
  <metadata id="CorelCorpID_0Corel-Layer"/>
  <path class="fil0" d="M2540 563.96c1091.22,0 1975.84,884.71 1975.84,1976.03 0,1091.35 -884.62,1976.04 -1975.84,1976.04 -1091.23,0 -1975.83,-884.69 -1975.83,-1976.04 0,-1091.32 884.6,-1976.03 1975.83,-1976.03z"/>
  <g style="clip-path:url(#id0)">
   <g id="_47599186208">
    <g>
    </g>
    <g style="clip-path:url(#id1)">
     <polygon id="_1" class="fil1" points="2669.88,2356.96 2669.88,2334.37 2702.18,2334.37 2702.18,2356.96 "/>
     <path id="_2" class="fil2" d="M2675.26 2353.19l21.53 0 0 -15.06 -21.53 0 0 15.06zm-16.15 11.3l0 -37.65 53.84 0 -0.01 37.65 -53.83 0z"/>
     <path id="_3" class="fil2" d="M2664.49 2360.72l43.07 0.01 0 -30.13 -43.07 0 0 30.12zm-16.15 11.3l0 -52.72 75.37 0.01 0 52.71 -75.37 0z"/>
     <path id="_4" class="fil3" d="M2653.72 2368.26l64.61 0 0 -45.19 -64.61 0 0 45.19zm-16.15 11.29l0 -67.78 96.91 0 0 67.78 -96.91 0z"/>
     <path id="_5" class="fil4" d="M2642.96 2375.79l86.14 0 0 -60.25 -86.14 0 0 60.25zm-16.15 11.29l0 -82.84 118.44 0 0 82.84 -118.44 0z"/>
     <path id="_6" class="fil4" d="M2632.19 2383.32l107.67 0 0 -75.31 -107.67 0 0 75.31zm-16.15 11.29l0 -97.9 139.98 0 -0.01 97.9 -139.97 0z"/>
     <path id="_7" class="fil5" d="M2621.42 2390.85l129.21 0 0 -90.37 -129.21 0 0 90.37zm-16.15 11.29l0 -112.96 161.51 0 0 112.97 -161.51 -0.01z"/>
     <path id="_8" class="fil5" d="M2610.65 2398.38l150.75 0 0 -105.43 -150.74 0 -0.01 105.43zm-16.15 11.29l0 -128.02 183.05 0 0 128.03 -183.05 -0.01z"/>
     <path id="_9" class="fil6" d="M2599.89 2405.91l172.28 0 0 -120.49 -172.28 -0.01 0 120.5zm-16.16 11.3l0.01 -143.09 204.58 0 0 143.09 -204.59 0z"/>
     <path id="_10" class="fil7" d="M2589.12 2413.44l193.81 0 0 -135.55 -193.81 -0.01 0 135.56zm-16.15 11.3l0 -158.15 226.12 0 -0.01 158.15 -226.11 0z"/>
     <path id="_11" class="fil7" d="M2578.35 2420.97l215.35 0 0 -150.61 -215.35 -0.01 0 150.62zm-16.15 11.3l0 -173.21 247.65 0 0 173.21 -247.65 0z"/>
     <path id="_12" class="fil8" d="M2567.58 2428.5l236.89 0 0 -165.68 -236.88 0 -0.01 165.68zm-16.15 11.3l0.01 -188.28 269.18 0.01 0 188.27 -269.19 0z"/>
     <path id="_13" class="fil9" d="M2556.82 2436.03l258.41 0.01 0.01 -180.75 -258.42 0 0 180.74zm-16.16 11.3l0.01 -203.34 290.72 0.01 0 203.33 -290.73 0z"/>
     <path id="_14" class="fil9" d="M2546.05 2443.56l279.95 0.01 0.01 -195.81 -279.96 0 0 195.8zm-16.15 11.3l0 -218.4 312.26 0.01 -0.01 218.39 -312.25 0z"/>
     <path id="_15" class="fil10" d="M2535.28 2451.09l301.49 0.01 0 -210.87 -301.49 0 0 210.86zm-16.15 11.3l0 -233.46 333.79 0.01 0 233.45 -333.79 0z"/>
     <path id="_16" class="fil10" d="M2524.51 2458.62l323.03 0.01 0 -225.93 -323.02 0 -0.01 225.92zm-16.15 11.3l0.01 -248.52 355.32 0.01 0 248.52 -355.33 -0.01z"/>
     <path id="_17" class="fil11" d="M2513.75 2466.16l344.55 0 0.01 -240.99 -344.56 0 0 240.99zm-16.16 11.29l0.01 -263.58 376.86 0 -0.01 263.59 -376.86 -0.01z"/>
     <path id="_18" class="fil12" d="M2502.98 2473.69l366.09 0 0.01 -256.05 -366.1 0 0 256.05zm-16.15 11.29l0 -278.64 398.4 0 -0.01 278.65 -398.39 -0.01z"/>
     <path id="_19" class="fil12" d="M2492.21 2481.22l387.63 0 0 -271.11 -387.62 -0.01 -0.01 271.12zm-16.15 11.29l0 -293.7 419.93 0 0 293.71 -419.93 -0.01z"/>
     <path id="_20" class="fil13" d="M2481.44 2488.75l409.17 0 0 -286.17 -409.16 -0.01 -0.01 286.18zm-16.15 11.29l0.01 -308.76 441.46 0 0 308.77 -441.47 -0.01z"/>
     <path id="_21" class="fil14" d="M2470.68 2496.28l430.69 0 0.01 -301.23 -430.7 -0.01 0 301.24zm-16.16 11.29l0.01 -323.82 463 0 -0.01 323.83 -463 -0.01z"/>
     <path id="_22" class="fil14" d="M2459.91 2503.81l452.23 0 0.01 -316.29 -452.24 -0.01 0 316.3zm-16.15 11.3l0 -338.9 484.54 0.01 -0.01 338.89 -484.53 0z"/>
     <path id="_23" class="fil15" d="M2449.14 2511.34l473.77 0.01 0 -331.36 -473.76 -0.01 -0.01 331.36zm-16.15 11.3l0 -353.96 506.07 0.01 0 353.95 -506.07 0z"/>
     <path id="_24" class="fil15" d="M2438.37 2518.87l495.3 0.01 0.01 -346.42 -495.3 -0.01 -0.01 346.42zm-16.15 11.3l0.01 -369.02 527.6 0.01 0 369.01 -527.61 0z"/>
     <path id="_25" class="fil16" d="M2427.61 2526.4l516.83 0.01 0.01 -361.49 -516.84 0 0 361.48zm-16.16 11.3l0.01 -384.08 549.14 0.01 -0.01 384.07 -549.14 0z"/>
     <path id="_26" class="fil17" d="M2416.84 2533.93l538.37 0.01 0.01 -376.55 -538.38 0 0 376.54zm-16.15 11.3l0 -399.14 570.68 0.01 -0.01 399.14 -570.67 -0.01z"/>
     <path id="_27" class="fil17" d="M2406.07 2541.46l559.91 0.01 0 -391.61 -559.9 0 -0.01 391.6zm-16.15 11.3l0.01 -414.2 592.2 0.01 0 414.2 -592.21 -0.01z"/>
     <path id="_28" class="fil18" d="M2395.3 2548.99l581.44 0.01 0.01 -406.67 -581.44 -0.01 -0.01 406.67zm-16.15 11.3l0.01 -429.26 613.74 0.01 0 429.26 -613.75 -0.01z"/>
     <path id="_29" class="fil19" d="M2384.53 2556.52l602.98 0.01 0.01 -421.73 -602.98 -0.01 -0.01 421.73zm-16.15 11.3l0.01 -444.32 635.28 0 -0.01 444.33 -635.28 -0.01z"/>
     <path id="_30" class="fil19" d="M2373.77 2564.06l624.51 0 0.01 -436.79 -624.52 -0.01 0 436.8zm-16.15 11.29l0 -459.38 656.82 0 -0.01 459.39 -656.81 -0.01z"/>
     <path id="_31" class="fil20" d="M2363 2571.59l646.05 0 0 -451.85 -646.04 -0.01 -0.01 451.86zm-16.15 11.29l0.01 -474.44 678.34 0 0 474.45 -678.35 -0.01z"/>
     <path id="_32" class="fil21" d="M2352.23 2579.12l667.58 0.01 0.01 -466.92 -667.58 -0.01 -0.01 466.92zm-16.15 11.29l0.01 -489.51 699.88 0.01 -0.01 489.51 -699.88 -0.01z"/>
     <path id="_33" class="fil21" d="M2341.46 2586.65l689.12 0.01 0.01 -481.98 -689.12 -0.01 -0.01 481.98zm-16.15 11.29l0.01 -504.57 721.42 0.01 -0.01 504.57 -721.42 -0.01z"/>
     <path id="_34" class="fil22" d="M2330.7 2594.18l710.65 0.01 0.01 -497.04 -710.65 -0.01 -0.01 497.04zm-16.15 11.29l0 -519.63 742.96 0.01 -0.01 519.63 -742.95 -0.01z"/>
     <path id="_35" class="fil22" d="M2319.93 2601.71l732.19 0.01 0 -512.1 -732.18 -0.01 -0.01 512.1zm-16.15 11.3l0.01 -534.7 764.49 0.01 -0.01 534.69 -764.49 0z"/>
     <path id="_36" class="fil23" d="M2309.16 2609.24l753.72 0.01 0.01 -527.16 -753.72 -0.01 -0.01 527.16zm-16.15 11.3l0.01 -549.76 786.02 0.01 -0.01 549.76 -786.02 -0.01z"/>
     <path id="_37" class="fil24" d="M2298.39 2616.77l775.26 0.01 0.01 -542.23 -775.26 0 -0.01 542.22zm-16.15 11.3l0.01 -564.82 807.56 0.01 -0.01 564.82 -807.56 -0.01z"/>
     <path id="_38" class="fil24" d="M2287.63 2624.3l796.79 0.01 0.01 -557.29 -796.79 -0.01 -0.01 557.29zm-16.15 11.3l0.01 -579.88 829.09 0.01 -0.01 579.88 -829.09 -0.01z"/>
     <path id="_39" class="fil25" d="M2276.86 2631.83l818.32 0.01 0.01 -572.35 -818.32 -0.01 -0.01 572.35zm-16.15 11.3l0.01 -594.94 850.63 0.01 -0.01 594.94 -850.63 -0.01z"/>
     <path id="_40" class="fil26" d="M2266.09 2639.36l839.86 0.01 0.01 -587.41 -839.86 -0.01 -0.01 587.41zm-16.15 11.3l0.01 -610 872.16 0.01 -0.01 610 -872.16 -0.01z"/>
     <path id="_41" class="fil26" d="M2255.32 2646.89l861.4 0.01 0.01 -602.47 -861.4 -0.01 -0.01 602.47zm-16.15 11.3l0.01 -625.07 893.7 0.02 -0.01 625.06 -893.7 -0.01z"/>
     <path id="_42" class="fil27" d="M2244.56 2654.42l882.93 0.02 0.01 -617.54 -882.93 -0.01 -0.01 617.53zm-16.15 11.3l0.01 -640.13 915.23 0.01 -0.01 640.13 -915.23 -0.01z"/>
     <path id="_43" class="fil27" d="M2233.79 2661.96l904.46 0.01 0.01 -632.6 -904.46 -0.01 -0.01 632.6zm-16.15 11.29l0.01 -655.19 936.77 0.01 -0.02 655.19 -936.76 -0.01z"/>
     <path id="_44" class="fil28" d="M2223.02 2669.49l926 0.01 0.01 -647.66 -926 -0.01 -0.01 647.66zm-16.15 11.29l0.01 -670.25 958.3 0.01 -0.01 670.25 -958.3 -0.01z"/>
     <path id="_45" class="fil29" d="M2212.25 2677.02l947.54 0.01 0.01 -662.72 -947.54 -0.01 -0.01 662.72zm-16.15 11.29l0.01 -685.31 979.84 0.01 -0.01 685.32 -979.84 -0.02z"/>
     <path id="_46" class="fil30" d="M2201.49 2684.55l969.07 0.01 0.01 -677.78 -969.07 -0.01 -0.01 677.78zm-16.15 11.29l0.01 -700.37 1001.37 0.01 -0.01 700.38 -1001.37 -0.02z"/>
     <path id="_47" class="fil31" d="M2190.72 2692.08l990.6 0.01 0.01 -692.84 -990.6 -0.01 -0.01 692.84zm-16.15 11.3l0.01 -715.44 1022.91 0.01 -0.02 715.44 -1022.9 -0.01z"/>
     <path id="_48" class="fil32" d="M2179.95 2699.61l1012.14 0.01 0.01 -707.9 -1012.14 -0.02 -0.01 707.91zm-16.15 11.3l0.01 -730.5 1044.44 0.01 -0.01 730.5 -1044.44 -0.01z"/>
     <path id="_49" class="fil32" d="M2169.18 2707.14l1033.68 0.01 0.01 -722.96 -1033.67 -0.02 -0.02 722.97zm-16.15 11.3l0.01 -745.56 1065.98 0.01 -0.01 745.56 -1065.98 -0.01z"/>
     <path id="_50" class="fil33" d="M2158.42 2714.67l1055.21 0.01 0.01 -738.03 -1055.21 -0.01 -0.01 738.03zm-16.16 11.3l0.02 -760.62 1087.51 0.01 -0.01 760.62 -1087.52 -0.01z"/>
     <path id="_51" class="fil34" d="M2147.65 2722.2l1076.74 0.02 0.01 -753.1 -1076.74 -0.01 -0.01 753.09zm-16.15 11.3l0.01 -775.69 1109.05 0.02 -0.02 775.68 -1109.04 -0.01z"/>
     <path id="_52" class="fil34" d="M2136.88 2729.73l1098.28 0.02 0.01 -768.16 -1098.28 -0.01 -0.01 768.15zm-16.15 11.3l0.01 -790.75 1130.58 0.02 -0.01 790.74 -1130.58 -0.01z"/>
     <path id="_53" class="fil35" d="M2126.11 2737.26l1119.82 0.02 0.01 -783.22 -1119.81 -0.01 -0.02 783.21zm-16.15 11.3l0.02 -805.81 1152.11 0.02 -0.01 805.8 -1152.12 -0.01z"/>
     <path id="_54" class="fil35" d="M2115.35 2744.79l1141.34 0.02 0.02 -798.28 -1141.35 -0.01 -0.01 798.27zm-16.16 11.3l0.02 -820.87 1173.65 0.02 -0.01 820.86 -1173.66 -0.01z"/>
     <path id="_55" class="fil36" d="M2104.58 2752.33l1162.88 0.01 0.02 -813.34 -1162.89 -0.01 -0.01 813.34zm-16.15 11.29l0.01 -835.93 1195.19 0.01 -0.02 835.94 -1195.18 -0.02z"/>
     <path id="_56" class="fil37" d="M2093.81 2759.86l1184.42 0.01 0.01 -828.4 -1184.42 -0.01 -0.01 828.4zm-16.15 11.29l0.01 -850.99 1216.72 0.01 -0.01 851 -1216.72 -0.02z"/>
     <path id="_57" class="fil37" d="M2083.04 2767.39l1205.96 0.01 0.01 -843.46 -1205.95 -0.02 -0.02 843.47zm-16.15 11.29l0.02 -866.05 1238.25 0.01 -0.01 866.06 -1238.26 -0.02z"/>
     <path id="_58" class="fil38" d="M2072.28 2774.92l1227.48 0.01 0.02 -858.52 -1227.49 -0.02 -0.01 858.53zm-16.16 11.29l0.02 -881.11 1259.79 0.01 -0.02 881.12 -1259.79 -0.02z"/>
     <path id="_59" class="fil39" d="M2061.51 2782.45l1249.02 0.01 0.02 -873.58 -1249.03 -0.02 -0.01 873.59zm-16.15 11.29l0.01 -896.17 1281.33 0.01 -0.02 896.18 -1281.32 -0.02z"/>
     <path id="_60" class="fil39" d="M2050.74 2789.98l1270.56 0.01 0.01 -888.64 -1270.55 -0.02 -0.02 888.65zm-16.15 11.3l0.01 -911.24 1302.86 0.01 -0.01 911.24 -1302.86 -0.01z"/>
     <path id="_61" class="fil40" d="M2039.97 2797.51l1292.1 0.02 0.01 -903.71 -1292.09 -0.02 -0.02 903.71zm-16.15 11.3l0.02 -926.31 1324.39 0.02 -0.01 926.3 -1324.4 -0.01z"/>
     <path id="_62" class="fil40" d="M2029.21 2805.04l1313.62 0.02 0.02 -918.77 -1313.63 -0.02 -0.01 918.77zm-16.16 11.3l0.02 -941.37 1345.93 0.02 -0.02 941.36 -1345.93 -0.01z"/>
     <path id="_63" class="fil41" d="M2018.44 2812.57l1335.16 0.02 0.02 -933.84 -1335.17 -0.01 -0.01 933.83zm-16.15 11.3l0.01 -956.43 1367.47 0.02 -0.02 956.42 -1367.46 -0.01z"/>
     <path id="_64" class="fil42" d="M2007.67 2820.1l1356.7 0.02 0.01 -948.9 -1356.69 -0.01 -0.02 948.89zm-16.15 11.3l0.01 -971.49 1389 0.02 -0.01 971.49 -1389 -0.02z"/>
     <path id="_65" class="fil42" d="M1996.9 2827.63l1378.23 0.02 0.02 -963.96 -1378.23 -0.01 -0.02 963.95zm-16.15 11.3l0.02 -986.55 1410.53 0.02 -0.01 986.55 -1410.54 -0.02z"/>
     <path id="_66" class="fil43" d="M1986.14 2835.16l1399.76 0.02 0.02 -979.02 -1399.77 -0.01 -0.01 979.01zm-16.16 11.3l0.02 -1001.61 1432.07 0.02 -0.02 1001.61 -1432.07 -0.02z"/>
     <path id="_67" class="fil44" d="M1975.37 2842.69l1421.3 0.02 0.02 -994.08 -1421.31 -0.02 -0.01 994.08zm-16.15 11.3l0.01 -1016.67 1453.61 0.02 -0.02 1016.67 -1453.6 -0.02z"/>
     <path id="_68" class="fil44" d="M1964.6 2850.23l1442.84 0.01 0.01 -1009.14 -1442.83 -0.02 -0.02 1009.15zm-16.15 11.29l0.02 -1031.73 1475.13 0.01 -0.01 1031.74 -1475.14 -0.02z"/>
     <path id="_69" class="fil45" d="M1953.83 2857.76l1464.37 0.01 0.02 -1024.2 -1464.37 -0.02 -0.02 1024.21zm-16.15 11.29l0.02 -1046.79 1496.67 0.01 -0.01 1046.8 -1496.68 -0.02z"/>
     <path id="_70" class="fil45" d="M1943.06 2865.29l1485.91 0.01 0.02 -1039.26 -1485.91 -0.02 -0.02 1039.27zm-16.15 11.29l0.02 -1061.86 1518.21 0.02 -0.02 1061.86 -1518.21 -0.02z"/>
     <path id="_71" class="fil46" d="M1932.3 2872.82l1507.44 0.02 0.02 -1054.33 -1507.45 -0.02 -0.01 1054.33zm-16.15 11.29l0.01 -1076.92 1539.75 0.02 -0.02 1076.92 -1539.74 -0.02z"/>
     <path id="_72" class="fil47" d="M1921.53 2880.35l1528.98 0.02 0.01 -1069.39 -1528.97 -0.02 -0.02 1069.39zm-16.15 11.29l0.02 -1091.98 1561.27 0.02 -0.01 1091.98 -1561.28 -0.02z"/>
     <path id="_73" class="fil48" d="M1910.76 2887.88l1550.51 0.02 0.02 -1084.45 -1550.51 -0.02 -0.02 1084.45zm-16.15 11.3l0.02 -1107.05 1582.81 0.02 -0.02 1107.04 -1582.81 -0.01z"/>
     <path id="_74" class="fil49" d="M1899.99 2895.41l1572.05 0.02 0.02 -1099.51 -1572.05 -0.02 -0.02 1099.51zm-16.15 11.3l0.02 -1122.11 1604.35 0.02 -0.02 1122.11 -1604.35 -0.02z"/>
     <path id="_75" class="fil50" d="M1889.23 2902.94l1593.58 0.02 0.02 -1114.57 -1593.58 -0.02 -0.02 1114.57zm-16.15 11.3l0.01 -1137.17 1625.89 0.02 -0.02 1137.17 -1625.88 -0.02z"/>
     <path id="_76" class="fil50" d="M1878.46 2910.47l1615.12 0.02 0.01 -1129.64 -1615.11 -0.02 -0.02 1129.64zm-16.15 11.3l0.02 -1152.23 1647.42 0.02 -0.02 1152.23 -1647.42 -0.02z"/>
     <path id="_77" class="fil51" d="M1867.69 2918l1636.65 0.02 0.02 -1144.7 -1636.65 -0.02 -0.02 1144.7zm-16.15 11.3l0.02 -1167.29 1668.95 0.02 -0.02 1167.29 -1668.95 -0.02z"/>
     <path id="_78" class="fil52" d="M1856.92 2925.53l1658.19 0.02 0.02 -1159.76 -1658.19 -0.02 -0.02 1159.76zm-16.15 11.3l0.02 -1182.35 1690.49 0.02 -0.02 1182.35 -1690.49 -0.02z"/>
     <path id="_79" class="fil52" d="M1846.16 2933.06l1679.72 0.02 0.02 -1174.82 -1679.72 -0.02 -0.02 1174.82zm-16.15 11.3l0.02 -1197.41 1712.02 0.02 -0.02 1197.41 -1712.02 -0.02z"/>
     <path id="_80" class="fil53" d="M1835.39 2940.59l1701.25 0.03 0.02 -1189.89 -1701.25 -0.02 -0.02 1189.88zm-16.15 11.3l0.02 -1212.48 1733.56 0.03 -0.02 1212.47 -1733.56 -0.02z"/>
     <path id="_81" class="fil53" d="M1824.62 2948.13l1722.79 0.02 0.02 -1204.95 -1722.79 -0.02 -0.02 1204.95zm-16.15 11.29l0.02 -1227.54 1755.09 0.02 -0.02 1227.54 -1755.09 -0.02z"/>
     <path id="_82" class="fil54" d="M1813.85 2955.66l1744.33 0.02 0.02 -1220.01 -1744.33 -0.02 -0.02 1220.01zm-16.15 11.29l0.02 -1242.6 1776.63 0.02 -0.02 1242.6 -1776.63 -0.02z"/>
     <path id="_83" class="fil55" d="M1803.09 2963.19l1765.86 0.02 0.02 -1235.07 -1765.86 -0.02 -0.02 1235.07zm-16.15 11.29l0.02 -1257.66 1798.16 0.02 -0.02 1257.66 -1798.16 -0.02z"/>
     <path id="_84" class="fil55" d="M1792.32 2970.72l1787.39 0.02 0.02 -1250.13 -1787.39 -0.02 -0.02 1250.13zm-16.15 11.29l0.02 -1272.72 1819.7 0.02 -0.03 1272.73 -1819.69 -0.03z"/>
     <path id="_85" class="fil56" d="M1781.55 2978.25l1808.93 0.02 0.02 -1265.19 -1808.93 -0.02 -0.02 1265.19zm-16.15 11.29l0.02 -1287.78 1841.23 0.02 -0.02 1287.79 -1841.23 -0.03z"/>
     <path id="_86" class="fil57" d="M1770.78 2985.78l1830.47 0.02 0.02 -1280.25 -1830.47 -0.03 -0.02 1280.26zm-16.15 11.3l0.02 -1302.85 1862.77 0.02 -0.02 1302.85 -1862.77 -0.02z"/>
     <path id="_87" class="fil57" d="M1760.02 2993.31l1852 0.02 0.02 -1295.31 -1852 -0.03 -0.02 1295.32zm-16.15 11.3l0.02 -1317.91 1884.3 0.02 -0.02 1317.91 -1884.3 -0.02z"/>
     <path id="_88" class="fil58" d="M1749.25 3000.84l1873.53 0.02 0.02 -1310.37 -1873.53 -0.03 -0.02 1310.38zm-16.15 11.3l0.02 -1332.97 1905.84 0.02 -0.03 1332.97 -1905.83 -0.02z"/>
     <path id="_89" class="fil58" d="M1738.48 3008.37l1895.07 0.02 0.02 -1325.44 -1895.07 -0.02 -0.02 1325.44zm-16.15 11.3l0.02 -1348.04 1927.37 0.03 -0.02 1348.03 -1927.37 -0.02z"/>
     <path id="_90" class="fil59" d="M1727.71 3015.9l1916.61 0.03 0.02 -1340.51 -1916.6 -0.02 -0.03 1340.5zm-16.15 11.3l0.02 -1363.1 1948.91 0.03 -0.02 1363.09 -1948.91 -0.02z"/>
     <path id="_91" class="fil60" d="M1716.95 3023.43l1938.14 0.03 0.02 -1355.57 -1938.14 -0.02 -0.02 1355.56zm-16.16 11.3l0.03 -1378.16 1970.44 0.03 -0.02 1378.15 -1970.45 -0.02z"/>
     <path id="_92" class="fil60" d="M1706.18 3030.96l1959.67 0.03 0.02 -1370.63 -1959.67 -0.02 -0.02 1370.62zm-16.15 11.3l0.02 -1393.22 1991.98 0.03 -0.03 1393.21 -1991.97 -0.02z"/>
     <path id="_93" class="fil61" d="M1695.41 3038.49l1981.21 0.03 0.02 -1385.69 -1981.21 -0.02 -0.02 1385.68zm-16.15 11.3l0.02 -1408.28 2013.51 0.03 -0.02 1408.28 -2013.51 -0.03z"/>
     <path id="_94" class="fil62" d="M1684.64 3046.03l2002.75 0.02 0.02 -1400.75 -2002.74 -0.02 -0.03 1400.75zm-16.15 11.29l0.03 -1423.34 2035.04 0.02 -0.02 1423.35 -2035.05 -0.03z"/>
     <path id="_95" class="fil62" d="M1673.88 3053.56l2024.27 0.02 0.03 -1415.81 -2024.28 -0.02 -0.02 1415.81zm-16.16 11.29l0.03 -1438.4 2056.58 0.02 -0.02 1438.41 -2056.59 -0.03z"/>
     <path id="_96" class="fil63" d="M1663.11 3061.09l2045.81 0.02 0.03 -1430.87 -2045.82 -0.03 -0.02 1430.88zm-16.15 11.29l0.02 -1453.46 2078.12 0.02 -0.03 1453.47 -2078.11 -0.03z"/>
     <path id="_97" class="fil64" d="M1652.34 3068.62l2067.35 0.02 0.02 -1445.93 -2067.35 -0.03 -0.02 1445.94zm-16.15 11.29l0.02 -1468.52 2099.65 0.02 -0.02 1468.53 -2099.65 -0.03z"/>
     <path id="_98" class="fil64" d="M1641.57 3076.15l2088.89 0.02 0.02 -1460.99 -2088.88 -0.03 -0.03 1461zm-16.15 11.29l0.03 -1483.58 2121.18 0.02 -0.02 1483.59 -2121.19 -0.03z"/>
     <path id="_99" class="fil65" d="M1630.81 3083.68l2110.41 0.03 0.03 -1476.06 -2110.42 -0.03 -0.02 1476.06zm-16.16 11.3l0.03 -1498.66 2142.72 0.03 -0.03 1498.65 -2142.72 -0.02z"/>
     <path id="_100" class="fil66" d="M1620.04 3091.21l2131.95 0.03 0.03 -1491.12 -2131.96 -0.03 -0.02 1491.12zm-16.15 11.3l0.02 -1513.72 2164.26 0.03 -0.03 1513.71 -2164.25 -0.02z"/>
     <path id="_101" class="fil67" d="M1609.27 3098.74l2153.49 0.03 0.02 -1506.18 -2153.48 -0.03 -0.03 1506.18zm-16.15 11.3l0.02 -1528.78 2185.79 0.03 -0.02 1528.77 -2185.79 -0.02z"/>
     <path id="_102" class="fil68" d="M1598.5 3106.27l2175.03 0.03 0.02 -1521.25 -2175.02 -0.02 -0.03 1521.24zm-16.15 11.3l0.03 -1543.84 2207.32 0.03 -0.02 1543.83 -2207.33 -0.02z"/>
     <path id="_103" class="fil68" d="M1587.74 3113.8l2196.55 0.03 0.03 -1536.31 -2196.56 -0.02 -0.02 1536.3zm-16.16 11.3l0.03 -1558.9 2228.86 0.03 -0.03 1558.9 -2228.86 -0.03z"/>
     <path id="_104" class="fil69" d="M1576.97 3121.33l2218.09 0.03 0.03 -1551.37 -2218.1 -0.02 -0.02 1551.36zm-16.15 11.3l0.02 -1573.96 2250.4 0.03 -0.03 1573.96 -2250.39 -0.03z"/>
     <path id="_105" class="fil70" d="M1566.2 3128.86l2239.63 0.03 0.02 -1566.43 -2239.62 -0.03 -0.03 1566.43zm-16.15 11.3l0.02 -1589.02 2271.93 0.03 -0.02 1589.02 -2271.93 -0.03z"/>
     <path id="_106" class="fil70" d="M1555.43 3136.39l2261.16 0.03 0.03 -1581.49 -2261.16 -0.03 -0.03 1581.49zm-16.15 11.3l0.03 -1604.08 2293.46 0.02 -0.02 1604.09 -2293.47 -0.03z"/>
     <path id="_107" class="fil71" d="M1544.67 3143.93l2282.69 0.02 0.03 -1596.55 -2282.7 -0.03 -0.02 1596.56zm-16.16 11.29l0.03 -1619.14 2315 0.02 -0.03 1619.15 -2315 -0.03z"/>
     <path id="_108" class="fil71" d="M1533.9 3151.46l2304.23 0.02 0.03 -1611.61 -2304.24 -0.03 -0.02 1611.62zm-16.15 11.29l0.02 -1634.2 2336.54 0.02 -0.03 1634.21 -2336.53 -0.03z"/>
     <path id="_109" class="fil72" d="M1523.13 3158.99l2325.77 0.03 0.02 -1626.68 -2325.76 -0.03 -0.03 1626.68zm-16.15 11.29l0.03 -1649.27 2358.06 0.03 -0.02 1649.27 -2358.07 -0.03z"/>
     <path id="_110" class="fil73" d="M1512.36 3166.52l2347.3 0.03 0.03 -1641.74 -2347.3 -0.03 -0.03 1641.74zm-16.15 11.29l0.03 -1664.33 2379.6 0.03 -0.02 1664.33 -2379.61 -0.03z"/>
     <path id="_111" class="fil73" d="M1501.59 3174.05l2368.84 0.03 0.03 -1656.8 -2368.84 -0.03 -0.03 1656.8zm-16.15 11.29l0.03 -1679.39 2401.14 0.03 -0.03 1679.39 -2401.14 -0.03z"/>
     <path id="_112" class="fil74" d="M1490.83 3181.58l2390.37 0.03 0.03 -1671.86 -2390.38 -0.03 -0.02 1671.86zm-16.15 11.3l0.02 -1694.46 2422.68 0.03 -0.03 1694.46 -2422.67 -0.03z"/>
     <path id="_113" class="fil75" d="M1480.06 3189.11l2411.91 0.03 0.02 -1686.92 -2411.9 -0.03 -0.03 1686.92zm-16.15 11.3l0.03 -1709.52 2444.2 0.03 -0.02 1709.52 -2444.21 -0.03z"/>
     <path id="_114" class="fil76" d="M1469.29 3196.64l2433.44 0.03 0.03 -1701.99 -2433.44 -0.02 -0.03 1701.98zm-16.15 11.3l0.03 -1724.58 2465.74 0.03 -0.03 1724.58 -2465.74 -0.03z"/>
     <path id="_115" class="fil77" d="M1458.52 3204.17l2454.98 0.03 0.03 -1717.05 -2454.98 -0.03 -0.03 1717.05zm-16.15 11.3l0.03 -1739.64 2487.28 0.03 -0.03 1739.64 -2487.28 -0.03z"/>
     <path id="_116" class="fil77" d="M1447.76 3211.7l2476.51 0.03 0.03 -1732.11 -2476.51 -0.03 -0.03 1732.11zm-16.15 11.3l0.02 -1754.7 2508.82 0.03 -0.03 1754.7 -2508.81 -0.03z"/>
     <path id="_117" class="fil78" d="M1436.99 3219.23l2498.05 0.03 0.02 -1747.17 -2498.04 -0.03 -0.03 1747.17zm-16.15 11.3l0.03 -1769.76 2530.35 0.03 -0.03 1769.76 -2530.35 -0.03z"/>
     <path id="_118" class="fil79" d="M1426.22 3226.76l2519.58 0.03 0.03 -1762.23 -2519.58 -0.03 -0.03 1762.23zm-16.15 11.3l0.03 -1784.83 2551.88 0.04 -0.03 1784.82 -2551.88 -0.03z"/>
     <path id="_119" class="fil79" d="M1415.45 3234.3l2541.12 0.03 0.03 -1777.3 -2541.12 -0.03 -0.03 1777.3zm-16.15 11.29l0.03 -1799.89 2573.42 0.03 -0.03 1799.89 -2573.42 -0.03z"/>
     <path id="_120" class="fil80" d="M1404.69 3241.83l2562.65 0.03 0.03 -1792.36 -2562.65 -0.03 -0.03 1792.36zm-16.15 11.29l0.03 -1814.95 2594.95 0.03 -0.03 1814.95 -2594.95 -0.03z"/>
     <path id="_121" class="fil81" d="M1393.92 3249.36l2584.18 0.03 0.03 -1807.42 -2584.18 -0.03 -0.03 1807.42zm-16.15 11.29l0.03 -1830.01 2616.49 0.03 -0.03 1830.01 -2616.49 -0.03z"/>
     <path id="_122" class="fil81" d="M1383.15 3256.89l2605.72 0.03 0.03 -1822.48 -2605.72 -0.03 -0.03 1822.48zm-16.15 11.29l0.03 -1845.07 2638.02 0.03 -0.03 1845.08 -2638.02 -0.04z"/>
     <path id="_123" class="fil82" d="M1372.38 3264.42l2627.26 0.03 0.03 -1837.54 -2627.26 -0.03 -0.03 1837.54zm-16.15 11.29l0.03 -1860.13 2659.56 0.03 -0.03 1860.14 -2659.56 -0.04z"/>
     <path id="_124" class="fil83" d="M1361.62 3271.95l2648.79 0.03 0.03 -1852.6 -2648.79 -0.04 -0.03 1852.61zm-16.15 11.3l0.03 -1875.2 2681.09 0.03 -0.03 1875.2 -2681.09 -0.03z"/>
     <path id="_125" class="fil83" d="M1350.85 3279.48l2670.32 0.03 0.03 -1867.66 -2670.32 -0.04 -0.03 1867.67zm-16.15 11.3l0.03 -1890.26 2702.63 0.03 -0.04 1890.26 -2702.62 -0.03z"/>
     <path id="_126" class="fil84" d="M1340.08 3287.01l2691.86 0.03 0.03 -1882.72 -2691.86 -0.04 -0.03 1882.73zm-16.15 11.3l0.03 -1905.32 2724.16 0.03 -0.03 1905.32 -2724.16 -0.03z"/>
     <path id="_127" class="fil85" d="M1329.31 3294.54l2713.4 0.03 0.03 -1897.79 -2713.4 -0.03 -0.03 1897.79zm-16.15 11.3l0.03 -1920.38 2745.7 0.03 -0.03 1920.38 -2745.7 -0.03z"/>
     <path id="_128" class="fil86" d="M1318.55 3302.07l2734.93 0.04 0.03 -1912.86 -2734.93 -0.03 -0.03 1912.85zm-16.15 11.3l0.03 -1935.45 2767.23 0.04 -0.03 1935.44 -2767.23 -0.03z"/>
     <path id="_129" class="fil87" d="M1307.78 3309.6l2756.46 0.04 0.03 -1927.92 -2756.46 -0.03 -0.03 1927.91zm-16.15 11.3l0.03 -1950.51 2788.77 0.04 -0.04 1950.5 -2788.76 -0.03z"/>
     <path id="_130" class="fil87" d="M1297.01 3317.13l2778 0.04 0.03 -1942.98 -2778 -0.03 -0.03 1942.97zm-16.15 11.3l0.03 -1965.57 2810.3 0.04 -0.03 1965.56 -2810.3 -0.03z"/>
     <path id="_131" class="fil88" d="M1286.24 3324.66l2799.54 0.04 0.03 -1958.04 -2799.53 -0.03 -0.04 1958.03zm-16.15 11.3l0.03 -1980.63 2831.84 0.04 -0.03 1980.62 -2831.84 -0.03z"/>
     <path id="_132" class="fil89" d="M1275.48 3332.2l2821.07 0.03 0.03 -1973.1 -2821.07 -0.03 -0.03 1973.1zm-16.16 11.29l0.04 -1995.69 2853.37 0.03 -0.03 1995.7 -2853.38 -0.04z"/>
     <path id="_133" class="fil89" d="M1264.71 3339.73l2842.6 0.03 0.03 -1988.16 -2842.6 -0.03 -0.03 1988.16zm-16.15 11.29l0.03 -2010.75 2874.91 0.03 -0.04 2010.76 -2874.9 -0.04z"/>
     <path id="_134" class="fil90" d="M1253.94 3347.26l2864.14 0.03 0.03 -2003.22 -2864.14 -0.04 -0.03 2003.23zm-16.15 11.29l0.03 -2025.81 2896.44 0.03 -0.03 2025.82 -2896.44 -0.04z"/>
     <path id="_135" class="fil90" d="M1243.17 3354.79l2885.68 0.03 0.03 -2018.28 -2885.67 -0.04 -0.04 2018.29zm-16.15 11.29l0.04 -2040.87 2917.97 0.03 -0.03 2040.88 -2917.98 -0.04z"/>
     <path id="_136" class="fil91" d="M1232.41 3362.32l2907.2 0.03 0.04 -2033.34 -2907.21 -0.04 -0.03 2033.35zm-16.16 11.29l0.04 -2055.93 2939.51 0.03 -0.03 2055.94 -2939.52 -0.04z"/>
     <path id="_137" class="fil92" d="M1221.64 3369.85l2928.74 0.03 0.04 -2048.4 -2928.75 -0.04 -0.03 2048.41zm-16.15 11.3l0.03 -2071.01 2961.05 0.04 -0.04 2071 -2961.04 -0.03z"/>
     <path id="_138" class="fil92" d="M1210.87 3377.38l2950.28 0.04 0.03 -2063.47 -2950.28 -0.04 -0.03 2063.47zm-16.15 11.3l0.03 -2086.07 2982.58 0.04 -0.03 2086.06 -2982.58 -0.03z"/>
     <path id="_139" class="fil93" d="M1200.1 3384.91l2971.82 0.04 0.03 -2078.53 -2971.81 -0.04 -0.04 2078.53zm-16.15 11.3l0.04 -2101.13 3004.11 0.04 -0.03 2101.12 -3004.12 -0.03z"/>
     <path id="_140" class="fil94" d="M1189.34 3392.44l2993.34 0.04 0.04 -2093.6 -2993.35 -0.03 -0.03 2093.59zm-16.16 11.3l0.04 -2116.19 3025.65 0.04 -0.04 2116.18 -3025.65 -0.03z"/>
     <path id="_141" class="fil95" d="M1178.57 3399.97l3014.88 0.04 0.04 -2108.66 -3014.89 -0.03 -0.03 2108.65zm-16.15 11.3l0.03 -2131.25 3047.19 0.04 -0.04 2131.25 -3047.18 -0.04z"/>
     <path id="_142" class="fil96" d="M1167.8 3407.5l3036.42 0.04 0.03 -2123.72 -3036.41 -0.03 -0.04 2123.71zm-16.15 11.3l0.03 -2146.31 3068.72 0.04 -0.03 2146.31 -3068.72 -0.04z"/>
     <path id="_143" class="fil96" d="M1157.03 3415.03l3057.96 0.04 0.03 -2138.78 -3057.95 -0.03 -0.04 2138.77zm-16.15 11.3l0.04 -2161.37 3090.25 0.04 -0.03 2161.37 -3090.26 -0.04z"/>
     <path id="_144" class="fil97" d="M1146.27 3422.56l3079.48 0.04 0.04 -2153.84 -3079.49 -0.04 -0.03 2153.84zm-16.16 11.3l0.04 -2176.43 3111.79 0.04 -0.04 2176.43 -3111.79 -0.04z"/>
     <path id="_145" class="fil96" d="M1135.5 3430.1l3101.02 0.03 0.04 -2168.9 -3101.03 -0.04 -0.03 2168.91zm-16.15 11.29l0.03 -2191.49 3133.33 0.03 -0.04 2191.5 -3133.32 -0.04z"/>
     <path id="_146" class="fil98" d="M1124.73 3437.63l3122.56 0.03 0.03 -2183.96 -3122.55 -0.04 -0.04 2183.97zm-16.15 11.29l0.03 -2206.55 3154.86 0.03 -0.03 2206.56 -3154.86 -0.04z"/>
     <path id="_147" class="fil99" d="M1113.96 3445.16l3144.09 0.03 0.04 -2199.02 -3144.09 -0.04 -0.04 2199.03zm-16.15 11.29l0.04 -2221.62 3176.39 0.04 -0.03 2221.62 -3176.4 -0.04z"/>
     <path id="_148" class="fil100" d="M1103.2 3452.69l3165.62 0.04 0.04 -2214.09 -3165.63 -0.04 -0.03 2214.09zm-16.16 11.29l0.04 -2236.68 3197.93 0.04 -0.04 2236.68 -3197.93 -0.04z"/>
     <path id="_149" class="fil101" d="M1092.43 3460.22l3187.16 0.04 0.04 -2229.15 -3187.17 -0.04 -0.03 2229.15zm-16.15 11.29l0.03 -2251.74 3219.47 0.04 -0.04 2251.74 -3219.46 -0.04z"/>
     <path id="_150" class="fil102" d="M1081.66 3467.75l3208.7 0.04 0.03 -2244.21 -3208.69 -0.04 -0.04 2244.21zm-16.15 11.3l0.04 -2266.81 3240.99 0.04 -0.03 2266.8 -3241 -0.03z"/>
     <path id="_151" class="fil103" d="M1070.89 3475.28l3230.23 0.04 0.04 -2259.27 -3230.23 -0.04 -0.04 2259.27zm-16.15 11.3l0.04 -2281.87 3262.53 0.04 -0.03 2281.87 -3262.54 -0.04z"/>
     <path id="_152" class="fil104" d="M1060.12 3482.81l3251.77 0.04 0.04 -2274.33 -3251.77 -0.04 -0.04 2274.33zm-16.15 11.3l0.04 -2296.93 3284.07 0.04 -0.04 2296.93 -3284.07 -0.04z"/>
     <path id="_153" class="fil105" d="M1049.36 3490.34l3273.3 0.04 0.04 -2289.4 -3273.31 -0.04 -0.03 2289.4zm-16.15 11.3l0.03 -2311.99 3305.61 0.04 -0.04 2311.99 -3305.6 -0.04z"/>
     <path id="_154" class="fil106" d="M1038.59 3497.87l3294.84 0.04 0.03 -2304.46 -3294.83 -0.04 -0.04 2304.46zm-16.15 11.3l0.04 -2327.05 3327.13 0.04 -0.03 2327.05 -3327.14 -0.04z"/>
     <path id="_155" class="fil107" d="M1027.82 3505.4l3316.37 0.04 0.04 -2319.52 -3316.37 -0.04 -0.04 2319.52zm-16.15 11.3l0.04 -2342.11 3348.67 0.04 -0.04 2342.11 -3348.67 -0.04z"/>
     <path id="_156" class="fil108" d="M1017.05 3512.93l3337.91 0.04 0.04 -2334.58 -3337.91 -0.04 -0.04 2334.58zm-16.15 11.3l0.04 -2357.17 3370.21 0.04 -0.04 2357.17 -3370.21 -0.04z"/>
     <path id="_157" class="fil109" d="M1006.29 3520.46l3359.44 0.05 0.04 -2349.65 -3359.44 -0.04 -0.04 2349.64zm-16.15 11.3l0.03 -2372.24 3391.75 0.05 -0.04 2372.23 -3391.74 -0.04z"/>
     <path id="_158" class="fil110" d="M995.52 3528l3380.98 0.04 0.03 -2364.71 -3380.97 -0.04 -0.04 2364.71zm-16.15 11.29l0.04 -2387.3 3413.28 0.04 -0.04 2387.3 -3413.28 -0.04z"/>
     <path id="_159" class="fil111" d="M984.75 3535.53l3402.51 0.04 0.04 -2379.77 -3402.51 -0.04 -0.04 2379.77zm-16.15 11.29l0.04 -2402.36 3434.81 0.04 -0.04 2402.36 -3434.81 -0.04z"/>
     <path id="_160" class="fil112" d="M973.98 3543.06l3424.05 0.04 0.04 -2394.83 -3424.05 -0.04 -0.04 2394.83zm-16.15 11.29l0.04 -2417.42 3456.35 0.04 -0.04 2417.43 -3456.35 -0.05z"/>
     <path id="_161" class="fil113" d="M963.22 3550.59l3445.58 0.04 0.04 -2409.89 -3445.58 -0.04 -0.04 2409.89zm-16.15 11.29l0.04 -2432.48 3477.88 0.04 -0.04 2432.49 -3477.88 -0.05z"/>
     <path id="_162" class="fil114" d="M952.45 3558.12l3467.11 0.04 0.04 -2424.95 -3467.11 -0.04 -0.04 2424.95zm-16.15 11.29l0.04 -2447.54 3499.42 0.04 -0.04 2447.55 -3499.42 -0.05z"/>
     <path id="_163" class="fil115" d="M941.68 3565.65l3488.65 0.04 0.04 -2440.01 -3488.65 -0.05 -0.04 2440.02zm-16.15 11.3l0.04 -2462.61 3520.95 0.04 -0.04 2462.61 -3520.95 -0.04z"/>
     <path id="_164" class="fil116" d="M930.91 3573.18l3510.19 0.04 0.04 -2455.07 -3510.19 -0.05 -0.04 2455.08zm-16.15 11.3l0.04 -2477.67 3542.49 0.04 -0.04 2477.67 -3542.49 -0.04z"/>
     <path id="_165" class="fil117" d="M920.15 3580.71l3531.72 0.04 0.04 -2470.13 -3531.72 -0.05 -0.04 2470.14zm-16.15 11.3l0.04 -2492.73 3564.02 0.04 -0.04 2492.73 -3564.02 -0.04z"/>
     <path id="_166" class="fil118" d="M909.38 3588.24l3553.25 0.04 0.04 -2485.2 -3553.25 -0.04 -0.04 2485.2zm-16.15 11.3l0.04 -2507.8 3585.56 0.05 -0.05 2507.79 -3585.55 -0.04z"/>
     <path id="_167" class="fil119" d="M898.61 3595.77l3574.79 0.05 0.04 -2500.27 -3574.79 -0.04 -0.04 2500.26zm-16.15 11.3l0.04 -2522.86 3607.09 0.05 -0.04 2522.85 -3607.09 -0.04z"/>
     <path id="_168" class="fil120" d="M887.84 3603.3l3596.33 0.05 0.04 -2515.33 -3596.33 -0.04 -0.04 2515.32zm-16.15 11.3l0.04 -2537.92 3628.63 0.05 -0.04 2537.91 -3628.63 -0.04z"/>
     <path id="_169" class="fil121" d="M877.08 3610.83l3617.86 0.05 0.04 -2530.39 -3617.86 -0.04 -0.04 2530.38zm-16.15 11.3l0.04 -2552.98 3650.16 0.05 -0.04 2552.97 -3650.16 -0.04z"/>
     <path id="_170" class="fil122" d="M866.31 3618.36l3639.39 0.05 0.04 -2545.45 -3639.39 -0.04 -0.04 2545.44zm-16.15 11.3l0.04 -2568.04 3671.7 0.05 -0.05 2568.04 -3671.69 -0.05z"/>
     <path id="_171" class="fil123" d="M855.54 3625.9l3660.93 0.04 0.04 -2560.51 -3660.93 -0.04 -0.04 2560.51zm-16.15 11.29l0.04 -2583.1 3693.23 0.04 -0.04 2583.11 -3693.23 -0.05z"/>
     <path id="_172" class="fil124" d="M844.77 3633.43l3682.47 0.04 0.04 -2575.57 -3682.46 -0.05 -0.05 2575.58zm-16.15 11.29l0.04 -2598.16 3714.77 0.04 -0.04 2598.17 -3714.77 -0.05z"/>
     <path id="_173" class="fil125" d="M834.01 3640.96l3704 0.04 0.04 -2590.63 -3704 -0.05 -0.04 2590.64zm-16.16 11.29l0.05 -2613.22 3736.3 0.04 -0.04 2613.23 -3736.31 -0.05z"/>
     <path id="_174" class="fil126" d="M823.24 3648.49l3725.53 0.04 0.04 -2605.69 -3725.53 -0.05 -0.04 2605.7zm-16.15 11.29l0.04 -2628.28 3757.84 0.04 -0.05 2628.29 -3757.83 -0.05z"/>
     <path id="_175" class="fil127" d="M812.47 3656.02l3747.07 0.04 0.04 -2620.75 -3747.07 -0.05 -0.04 2620.76zm-16.15 11.29l0.04 -2643.34 3779.37 0.04 -0.04 2643.35 -3779.37 -0.05z"/>
     <path id="_176" class="fil128" d="M801.7 3663.55l3768.61 0.05 0.04 -2635.82 -3768.6 -0.05 -0.05 2635.82zm-16.15 11.3l0.05 -2658.42 3800.9 0.05 -0.04 2658.41 -3800.91 -0.04z"/>
     <path id="_177" class="fil129" d="M790.94 3671.08l3790.13 0.05 0.05 -2650.88 -3790.14 -0.05 -0.04 2650.88zm-16.16 11.3l0.05 -2673.48 3822.44 0.05 -0.04 2673.47 -3822.45 -0.04z"/>
     <path id="_178" class="fil130" d="M780.17 3678.61l3811.67 0.05 0.05 -2665.95 -3811.68 -0.04 -0.04 2665.94zm-16.15 11.3l0.04 -2688.54 3843.98 0.05 -0.05 2688.53 -3843.97 -0.04z"/>
     <path id="_179" class="fil131" d="M769.4 3686.14l3833.21 0.05 0.04 -2681.01 -3833.21 -0.04 -0.04 2681zm-16.15 11.3l0.04 -2703.6 3865.51 0.05 -0.04 2703.59 -3865.51 -0.04z"/>
     <path id="_180" class="fil132" d="M758.63 3693.67l3854.75 0.05 0.04 -2696.07 -3854.74 -0.04 -0.05 2696.06zm-16.15 11.3l0.05 -2718.66 3887.04 0.05 -0.04 2718.66 -3887.05 -0.05z"/>
     <path id="_181" class="fil133" d="M747.87 3701.2l3876.27 0.05 0.05 -2711.13 -3876.28 -0.04 -0.04 2711.12zm-16.16 11.3l0.05 -2733.72 3908.58 0.05 -0.05 2733.72 -3908.58 -0.05z"/>
     <path id="_182" class="fil134" d="M737.1 3708.73l3897.81 0.05 0.05 -2726.19 -3897.82 -0.05 -0.04 2726.19zm-16.15 11.3l0.04 -2748.78 3930.12 0.05 -0.05 2748.78 -3930.11 -0.05z"/>
     <path id="_183" class="fil135" d="M726.33 3716.26l3919.35 0.05 0.04 -2741.25 -3919.34 -0.05 -0.05 2741.25zm-16.15 11.3l0.04 -2763.84 3951.65 0.04 -0.04 2763.85 -3951.65 -0.05z"/>
     <path id="_184" class="fil136" d="M715.56 3723.8l3940.89 0.04 0.04 -2756.31 -3940.88 -0.05 -0.05 2756.32zm-16.15 11.29l0.05 -2778.9 3973.18 0.04 -0.04 2778.91 -3973.19 -0.05z"/>
     <path id="_185" class="fil137" d="M704.8 3731.33l3962.41 0.04 0.05 -2771.37 -3962.42 -0.05 -0.04 2771.38zm-16.16 11.29l0.05 -2793.97 3994.72 0.05 -0.05 2793.97 -3994.72 -0.05z"/>
     <path id="_186" class="fil138" d="M694.03 3738.86l3983.95 0.05 0.05 -2786.44 -3983.96 -0.05 -0.04 2786.44zm-16.15 11.29l0.04 -2809.03 4016.26 0.05 -0.05 2809.03 -4016.25 -0.05z"/>
     <path id="_187" class="fil139" d="M683.26 3746.39l4005.49 0.05 0.04 -2801.5 -4005.48 -0.05 -0.05 2801.5zm-16.15 11.29l0.04 -2824.09 4037.79 0.05 -0.04 2824.09 -4037.79 -0.05z"/>
     <path id="_188" class="fil140" d="M672.49 3753.92l4027.02 0.05 0.05 -2816.56 -4027.02 -0.05 -0.05 2816.56zm-16.15 11.29l0.05 -2839.15 4059.32 0.05 -0.04 2839.15 -4059.33 -0.05z"/>
     <path id="_189" class="fil141" d="M661.73 3761.45l4048.55 0.05 0.05 -2831.62 -4048.56 -0.05 -0.04 2831.62zm-16.16 11.3l0.05 -2854.22 4080.86 0.05 -0.05 2854.22 -4080.86 -0.05z"/>
     <path id="_190" class="fil142" d="M650.96 3768.98l4070.09 0.05 0.05 -2846.68 -4070.1 -0.05 -0.04 2846.68zm-16.15 11.3l0.04 -2869.28 4102.4 0.05 -0.05 2869.28 -4102.39 -0.05z"/>
     <path id="_191" class="fil143" d="M640.19 3776.51l4091.63 0.05 0.04 -2861.75 -4091.62 -0.04 -0.05 2861.74zm-16.15 11.3l0.05 -2884.34 4123.92 0.05 -0.04 2884.34 -4123.93 -0.05z"/>
     <path id="_192" class="fil144" d="M629.42 3784.04l4113.16 0.05 0.05 -2876.81 -4113.16 -0.05 -0.05 2876.81zm-16.15 11.3l0.05 -2899.4 4145.46 0.05 -0.04 2899.4 -4145.47 -0.05z"/>
     <path id="_193" class="fil145" d="M618.65 3791.57l4134.7 0.05 0.05 -2891.87 -4134.7 -0.05 -0.05 2891.87zm-16.15 11.3l0.05 -2914.46 4167 0.05 -0.05 2914.46 -4167 -0.05z"/>
     <path id="_194" class="fil146" d="M607.89 3799.1l4156.23 0.05 0.05 -2906.93 -4156.24 -0.05 -0.04 2906.93zm-16.15 11.3l0.04 -2929.52 4188.54 0.05 -0.05 2929.52 -4188.53 -0.05z"/>
     <path id="_195" class="fil147" d="M597.12 3806.63l4177.77 0.05 0.04 -2921.99 -4177.76 -0.05 -0.05 2921.99zm-16.15 11.3l0.05 -2944.59 4210.06 0.06 -0.04 2944.58 -4210.07 -0.05z"/>
     <path id="_196" class="fil148" d="M586.35 3814.17l4199.3 0.05 0.05 -2937.06 -4199.3 -0.05 -0.05 2937.06zm-16.15 11.29l0.05 -2959.65 4231.6 0.05 -0.05 2959.65 -4231.6 -0.05z"/>
     <path id="_197" class="fil149" d="M575.58 3821.7l4220.84 0.05 0.05 -2952.12 -4220.84 -0.05 -0.05 2952.12zm-16.15 11.29l0.05 -2974.71 4253.14 0.05 -0.05 2974.71 -4253.14 -0.05z"/>
     <path id="_198" class="fil150" d="M564.82 3829.23l4242.37 0.05 0.05 -2967.18 -4242.37 -0.05 -0.05 2967.18zm-16.15 11.29l0.04 -2989.77 4274.68 0.05 -0.05 2989.77 -4274.67 -0.05z"/>
     <path id="_199" class="fil151" d="M554.05 3836.76l4263.91 0.05 0.04 -2982.24 -4263.9 -0.05 -0.05 2982.24zm-16.15 11.29l0.05 -3004.83 4296.21 0.05 -0.05 3004.84 -4296.21 -0.06z"/>
     <path id="_200" class="fil152" d="M543.28 3844.29l4285.44 0.05 0.05 -2997.3 -4285.44 -0.05 -0.05 2997.3zm-16.15 11.29l0.05 -3019.89 4317.74 0.05 -0.05 3019.9 -4317.74 -0.06z"/>
     <path id="_201" class="fil153" d="M532.51 3851.82l4306.98 0.05 0.05 -3012.36 -4306.98 -0.06 -0.05 3012.37zm-16.15 11.3l0.05 -3034.96 4339.28 0.05 -0.05 3034.96 -4339.28 -0.05z"/>
     <path id="_202" class="fil154" d="M521.75 3859.35l4328.51 0.05 0.05 -3027.42 -4328.51 -0.06 -0.05 3027.43zm-16.15 11.3l0.05 -3050.02 4360.81 0.05 -0.05 3050.02 -4360.81 -0.05z"/>
     <path id="_203" class="fil155" d="M510.98 3866.88l4350.04 0.05 0.05 -3042.48 -4350.04 -0.06 -0.05 3042.49zm-16.15 11.3l0.05 -3065.08 4382.35 0.05 -0.05 3065.08 -4382.35 -0.05z"/>
     <path id="_204" class="fil156" d="M500.21 3874.41l4371.58 0.05 0.05 -3057.55 -4371.58 -0.05 -0.05 3057.55zm-16.15 11.3l0.05 -3080.14 4403.88 0.05 -0.05 3080.14 -4403.88 -0.05z"/>
     <path id="_205" class="fil157" d="M489.44 3881.94l4393.12 0.06 0.05 -3072.62 -4393.12 -0.05 -0.05 3072.61zm-16.15 11.3l0.05 -3095.21 4425.42 0.06 -0.05 3095.2 -4425.42 -0.05z"/>
     <path id="_206" class="fil158" d="M478.68 3889.47l4414.65 0.06 0.05 -3087.68 -4414.65 -0.05 -0.05 3087.67zm-16.15 11.3l0.05 -3110.27 4446.95 0.06 -0.05 3110.26 -4446.95 -0.05z"/>
     <path id="_207" class="fil159" d="M467.91 3897l4436.18 0.06 0.05 -3102.74 -4436.18 -0.05 -0.05 3102.73zm-16.15 11.3l0.05 -3125.33 4468.49 0.06 -0.06 3125.32 -4468.48 -0.05z"/>
     <path id="_208" class="fil160" d="M457.14 3904.53l4457.72 0.06 0.05 -3117.8 -4457.72 -0.05 -0.05 3117.79zm-16.15 11.3l0.05 -3140.39 4490.02 0.06 -0.05 3140.39 -4490.02 -0.06z"/>
     <path id="_209" class="fil161" d="M446.37 3912.07l4479.26 0.05 0.05 -3132.86 -4479.26 -0.05 -0.05 3132.86zm-16.15 11.29l0.05 -3155.45 4511.56 0.05 -0.05 3155.46 -4511.56 -0.06z"/>
     <path id="_210" class="fil162" d="M435.61 3919.6l4500.79 0.05 0.05 -3147.92 -4500.79 -0.05 -0.05 3147.92zm-16.15 11.29l0.05 -3170.51 4533.09 0.05 -0.05 3170.52 -4533.09 -0.06z"/>
     <path id="_211" class="fil163" d="M424.84 3927.13l4522.32 0.05 0.05 -3162.98 -4522.32 -0.06 -0.05 3162.99zm-16.15 11.29l0.05 -3185.57 4554.63 0.05 -0.06 3185.58 -4554.62 -0.06z"/>
     <path id="_212" class="fil164" d="M414.07 3934.66l4543.86 0.05 0.05 -3178.04 -4543.86 -0.06 -0.05 3178.05zm-16.15 11.29l0.05 -3200.63 4576.16 0.05 -0.05 3200.64 -4576.16 -0.06z"/>
     <path id="_213" class="fil165" d="M403.3 3942.19l4565.4 0.05 0.05 -3193.1 -4565.39 -0.06 -0.06 3193.11zm-16.15 11.29l0.05 -3215.69 4597.7 0.05 -0.05 3215.7 -4597.7 -0.06z"/>
     <path id="_214" class="fil166" d="M392.54 3949.72l4586.92 0.05 0.06 -3208.16 -4586.93 -0.06 -0.05 3208.17zm-16.16 11.3l0.06 -3230.77 4619.23 0.06 -0.05 3230.76 -4619.24 -0.05z"/>
     <path id="_215" class="fil167" d="M381.77 3957.25l4608.46 0.06 0.05 -3223.23 -4608.46 -0.06 -0.05 3223.23zm-16.15 11.3l0.05 -3245.83 4640.77 0.06 -0.06 3245.82 -4640.76 -0.05z"/>
     <path id="_216" class="fil168" d="M371 3964.78l4630 0.06 0.05 -3238.29 -4630 -0.06 -0.05 3238.29zm-16.15 11.3l0.05 -3260.89 4662.3 0.06 -0.05 3260.88 -4662.3 -0.05z"/>
     <path id="_217" class="fil169" d="M360.23 3972.31l4651.54 0.06 0.05 -3253.36 -4651.53 -0.05 -0.06 3253.35zm-16.15 11.3l0.06 -3275.95 4683.83 0.06 -0.05 3275.94 -4683.84 -0.05z"/>
     <path id="_218" class="fil170" d="M349.47 3979.84l4673.06 0.06 0.06 -3268.42 -4673.07 -0.05 -0.05 3268.41zm-16.16 11.3l0.06 -3291.01 4705.37 0.06 -0.05 3291.01 -4705.38 -0.06z"/>
     <path id="_219" class="fil171" d="M338.7 3987.37l4694.6 0.06 0.06 -3283.48 -4694.61 -0.05 -0.05 3283.47zm-16.15 11.3l0.05 -3306.07 4726.91 0.06 -0.06 3306.07 -4726.9 -0.06z"/>
     <path id="_220" class="fil172" d="M327.93 3994.9l4716.14 0.06 0.05 -3298.54 -4716.14 -0.05 -0.05 3298.53zm-16.15 11.3l0.05 -3321.13 4748.44 0.06 -0.05 3321.13 -4748.44 -0.06z"/>
     <path id="_221" class="fil173" d="M317.16 4002.43l4737.68 0.06 0.05 -3313.6 -4737.67 -0.06 -0.06 3313.6zm-16.15 11.3l0.06 -3336.19 4769.97 0.06 -0.05 3336.19 -4769.98 -0.06z"/>
     <path id="_222" class="fil174" d="M306.4 4009.97l4759.2 0.05 0.06 -3328.66 -4759.21 -0.06 -0.05 3328.67zm-16.16 11.29l0.06 -3351.25 4791.51 0.05 -0.06 3351.26 -4791.51 -0.06z"/>
     <path id="_223" class="fil175" d="M295.63 4017.5l4780.74 0.05 0.06 -3343.72 -4780.75 -0.06 -0.05 3343.73zm-16.15 11.29l0.05 -3366.31 4813.05 0.05 -0.06 3366.32 -4813.04 -0.06z"/>
     <path id="_224" class="fil176" d="M284.86 4025.03l4802.28 0.06 0.05 -3358.79 -4802.27 -0.06 -0.06 3358.79zm-16.15 11.29l0.05 -3381.38 4834.58 0.06 -0.05 3381.38 -4834.58 -0.06z"/>
     <path id="_225" class="fil177" d="M274.09 4032.56l4823.82 0.06 0.05 -3373.85 -4823.81 -0.06 -0.06 3373.85zm-16.15 11.29l0.06 -3396.44 4856.11 0.06 -0.05 3396.44 -4856.12 -0.06z"/>
     <path id="_226" class="fil178" d="M263.33 4040.09l4845.34 0.06 0.06 -3388.91 -4845.35 -0.06 -0.05 3388.91zm-16.16 11.29l0.06 -3411.5 4877.65 0.06 -0.06 3411.5 -4877.65 -0.06z"/>
     <path id="_227" class="fil179" d="M252.56 4047.62l4866.88 0.06 0.06 -3403.97 -4866.89 -0.06 -0.05 3403.97zm-16.15 11.3l0.05 -3426.57 4899.19 0.06 -0.06 3426.56 -4899.18 -0.05z"/>
     <path id="_228" class="fil180" d="M241.79 4055.15l4888.42 0.06 0.05 -3419.03 -4888.41 -0.06 -0.06 3419.03zm-16.15 11.3l0.06 -3441.63 4920.71 0.06 -0.05 3441.63 -4920.72 -0.06z"/>
     <path id="_229" class="fil181" d="M231.02 4062.68l4909.95 0.06 0.06 -3434.09 -4909.95 -0.06 -0.06 3434.09zm-16.15 11.3l0.06 -3456.69 4942.25 0.06 -0.05 3456.69 -4942.26 -0.06z"/>
     <path id="_230" class="fil182" d="M220.26 4070.21l4931.48 0.06 0.06 -3449.16 -4931.49 -0.06 -0.05 3449.16zm-16.16 11.3l0.06 -3471.75 4963.79 0.06 -0.06 3471.75 -4963.79 -0.06z"/>
     <path id="_231" class="fil183" d="M209.49 4077.74l4953.02 0.06 0.06 -3464.22 -4953.03 -0.06 -0.05 3464.22zm-16.15 11.3l0.05 -3486.81 4985.33 0.06 -0.06 3486.81 -4985.32 -0.06z"/>
     <path id="_232" class="fil184" d="M198.72 4085.27l4974.56 0.06 0.05 -3479.28 -4974.55 -0.06 -0.06 3479.28zm-16.15 11.3l0.06 -3501.87 5006.85 0.06 -0.05 3501.87 -5006.86 -0.06z"/>
     <path id="_233" class="fil185" d="M187.95 4092.8l4996.09 0.06 0.06 -3494.34 -4996.09 -0.06 -0.06 3494.34zm-16.15 11.3l0.06 -3516.94 5028.39 0.07 -0.06 3516.93 -5028.39 -0.06z"/>
     <path id="_234" class="fil186" d="M177.18 4100.33l5017.63 0.07 0.06 -3509.41 -5017.63 -0.06 -0.06 3509.4zm-16.15 11.3l0.06 -3532 5049.93 0.07 -0.06 3531.99 -5049.93 -0.06z"/>
     <path id="_235" class="fil187" d="M166.42 4107.87l5039.16 0.06 0.06 -3524.47 -5039.17 -0.06 -0.05 3524.47zm-16.15 11.29l0.05 -3547.06 5071.47 0.06 -0.06 3547.06 -5071.46 -0.06z"/>
     <path id="_236" class="fil188" d="M155.65 4115.4l5060.7 0.06 0.05 -3539.53 -5060.69 -0.06 -0.06 3539.53zm-16.15 11.29l0.06 -3562.12 5092.99 0.06 -0.05 3562.12 -5093 -0.06z"/>
     <path id="_237" class="fil189" d="M144.88 4122.93l5082.23 0.06 0.06 -3554.59 -5082.23 -0.06 -0.06 3554.59zm-16.15 11.29l0.06 -3577.18 5114.53 0.06 -0.06 3577.19 -5114.53 -0.07z"/>
     <path id="_238" class="fil190" d="M134.11 4130.46l5103.77 0.06 0.06 -3569.65 -5103.77 -0.06 -0.06 3569.65zm-16.15 11.29l0.06 -3592.24 5136.07 0.06 -0.06 3592.25 -5136.07 -0.07z"/>
     <path id="_239" class="fil191" d="M123.35 4137.99l5125.3 0.06 0.06 -3584.71 -5125.3 -0.06 -0.06 3584.71zm-16.15 11.29l0.05 -3607.3 5157.61 0.06 -0.06 3607.31 -5157.6 -0.07z"/>
     <path id="_240" class="fil192" d="M112.58 4145.52l5146.84 0.06 0.05 -3599.77 -5146.83 -0.07 -0.06 3599.78zm-16.15 11.3l0.06 -3622.37 5179.14 0.06 -0.06 3622.37 -5179.14 -0.06z"/>
     <path id="_241" class="fil193" d="M101.81 4153.05l5168.37 0.06 0.06 -3614.83 -5168.37 -0.07 -0.06 3614.84zm-16.15 11.3l0.06 -3637.43 5200.67 0.06 -0.06 3637.43 -5200.67 -0.06z"/>
     <path id="_242" class="fil194" d="M91.04 4160.58l5189.91 0.06 0.06 -3629.89 -5189.91 -0.07 -0.06 3629.9zm-16.15 11.3l0.06 -3652.49 5222.21 0.06 -0.06 3652.49 -5222.21 -0.06z"/>
     <path id="_243" class="fil195" d="M80.28 4168.11l5211.44 0.06 0.06 -3644.96 -5211.44 -0.06 -0.06 3644.96zm-16.15 11.3l0.06 -3667.56 5243.74 0.07 -0.06 3667.55 -5243.74 -0.06z"/>
     <path id="_244" class="fil196" d="M69.51 4175.64l5232.97 0.07 0.06 -3660.03 -5232.97 -0.06 -0.06 3660.02zm-16.15 11.3l0.06 -3682.62 5265.28 0.07 -0.06 3682.61 -5265.28 -0.06z"/>
     <path id="_245" class="fil197" d="M58.74 4183.17l5254.51 0.07 0.06 -3675.09 -5254.51 -0.06 -0.06 3675.08zm-10.77 7.53l0.06 -3690.14 5276.05 0.06 -0.06 3690.15 -5276.05 -0.07z"/>
    </g>
    <g style="clip-path:url(#id2)">
    </g>
   </g>
  </g>
  <path class="fil198" d="M2540 563.96c1091.22,0 1975.84,884.71 1975.84,1976.03 0,1091.35 -884.62,1976.04 -1975.84,1976.04 -1091.23,0 -1975.83,-884.69 -1975.83,-1976.04 0,-1091.32 884.6,-1976.03 1975.83,-1976.03z"/>
 </g>
</svg>
